<svg xmlns="http://www.w3.org/2000/svg" width="512px" height="512px" viewBox="0 0 512 512" data-bbox="48 85.40983813596245 416 286.0405171604592" style="overflow: visible;"><g transform="matrix(0.9374871253967285, 0, 0, 0.9374871253967285, 87.2948989868164, 12.670218467712402)" data-uid="o-5360ee380ddf479e96ebb1d56048b4ed"><svg version="1.1" id="Calque_1" xmlns="http://www.w3.org/2000/svg" x="0px" y="0px" viewBox="0 0 360 360" enable-background="new 0 0 360 360" width="360" height="360" data-uid="o-e30a152422844d2eab774ad4f4c50f76"><g data-uid="o-5d2733054dac4c9c9da24a7259e92c65"><g data-uid="o-029e9cd5d6244f599761789b055796ed"><g data-uid="o-7ef625f05f1a43f39f42d4ba09e85bc3"><path class="st0" d="M157.36 255.72c3.36 8.54 11.67 14.6 21.38 14.6s18.02-6.07 21.38-14.6H157.36z" fill="#2563eb" data-uid="o-dddc46bdce4c43899f0f914d16157d87"></path></g></g><g data-uid="o-683afd7f349142aba537ac4f38e5b4d8"><path class="st0" d="M304.3 139.09v74.14c0 2.94-1.96 5.52-4.79 6.3l-106.69 29.64h127.15V139.09H304.3z" fill="#2563eb" data-uid="o-0ae64e43331a4c0a92225f8707d1ae1d"></path><path class="st0" d="M57.98 219.54c-2.83-0.79-4.79-3.36-4.79-6.3v-74.14H37.51v110.08h127.15L57.98 219.54z" fill="#2563eb" data-uid="o-3ef204915f884b60853383080a1f5a7a"></path></g><path class="st0" d="M131.3 209.48c-1.27-1.23-1.99-2.93-1.99-4.7V99.51L98.44 84.18V206.4l60.98 30.3L131.3 209.48z" fill="#2563eb" data-uid="o-dafe1500e24349d4afc3d09266682b12"></path><path class="st0" d="M228.18 99.51v105.26c0 1.77-0.72 3.47-1.99 4.7l-28.12 27.22l34.21-17l26.77-13.3V84.18L228.18 99.51z" fill="#2563eb" data-uid="o-8666107abe544747a0638f373fb10ec7"></path><path class="st0" d="M265.59 120.89v85.51c0 2.48-1.41 4.75-3.63 5.86l-49.87 24.78l85.67-23.8V111.95L265.59 120.89z" fill="#2563eb" data-uid="o-37bc37d9ece849d9817dabd5b2bfbea6"></path><path class="st0" d="M95.53 212.26c-2.22-1.11-3.63-3.37-3.63-5.86v-85.51l-32.17-8.94v101.28l59.5 16.53l26.17 7.27L95.53 212.26z
		" fill="#2563eb" data-uid="o-98ff238000f74192926d049cd6c74c2b"></path><g data-uid="o-34c69f12c9cc480c8221a2623831551b"><path class="st0" fill="#2563eb" data-type="polygon" d="M175.47 115.94L135.84 77.59L135.84 204.78L157.29 225.54L175.47 243.13Z" data-uid="o-c240867dedaa4088990956cdfd4b3bd9"></path><path class="st0" fill="#2563eb" data-type="polygon" d="M182.01 115.94L182.01 243.13L221.64 204.78L221.64 77.59Z" data-uid="o-0d1930ccb8eb4f33b9e3d98d889cb90e"></path></g></g></svg></g><path text="BookStore" fill="rgba(0, 53, 107, 1)" space="preserve" text-anchor="middle" offset="0.5" font-scale="contain" font-size="48" font-family="Outfit" transform="matrix(1.6944735050201416, 0, 0, 1.6944735050201416, 254.08863830566406, 370.4743347167969)" data-fl-textpath="" font-style="normal" font-weight="900" letter-spacing="1" data-uid="o-a304581165ed42e5b2b1315fbc2d277f" d="M-105.88 0L-113.848 0L-113.848-6.912L-107.56-6.912Q-105.736-6.912 -104.632-7.896Q-103.528-8.88 -103.528-10.608L-103.528-10.608Q-103.528-11.76 -104.032-12.6Q-104.536-13.44 -105.424-13.872Q-106.312-14.304 -107.56-14.304L-107.56-14.304L-113.848-14.304L-113.848-20.928L-107.992-20.928Q-106.456-20.928 -105.448-21.696Q-104.44-22.464 -104.44-24.096L-104.44-24.096Q-104.44-25.728 -105.448-26.496Q-106.456-27.264 -107.992-27.264L-107.992-27.264L-113.848-27.264L-113.848-34.176L-105.304-34.176Q-102.184-34.176 -99.856-33Q-97.528-31.824 -96.232-29.784Q-94.936-27.744 -94.936-25.104L-94.936-25.104Q-94.936-21.456 -97.528-19.152Q-100.12-16.848 -105.112-16.512L-105.112-16.512L-105.208-19.824Q-99.784-19.488 -96.904-16.848Q-94.024-14.208 -94.024-10.08L-94.024-10.08Q-94.024-7.104 -95.512-4.824Q-97-2.544 -99.664-1.272Q-102.328 0 -105.88 0L-105.88 0ZM-112.216 0L-121.624 0L-121.624-34.176L-112.216-34.176L-112.216 0ZM-77.664 0.576L-77.664 0.576Q-81.552 0.576 -84.6-1.032Q-87.648-2.64 -89.4-5.472Q-91.152-8.304 -91.152-11.856L-91.152-11.856Q-91.152-15.408 -89.424-18.192Q-87.696-20.976 -84.648-22.584Q-81.6-24.192 -77.712-24.192L-77.712-24.192Q-73.824-24.192 -70.8-22.584Q-67.776-20.976 -66.024-18.192Q-64.272-15.408 -64.272-11.856L-64.272-11.856Q-64.272-8.304 -66-5.472Q-67.728-2.64 -70.752-1.032Q-73.776 0.576 -77.664 0.576ZM-77.712-7.68L-77.712-7.68Q-76.512-7.68 -75.624-8.184Q-74.736-8.688 -74.256-9.624Q-73.776-10.56 -73.776-11.808L-73.776-11.808Q-73.776-13.056 -74.28-13.992Q-74.784-14.928 -75.648-15.432Q-76.512-15.936 -77.712-15.936L-77.712-15.936Q-78.864-15.936 -79.752-15.408Q-80.64-14.88 -81.144-13.944Q-81.648-13.008 -81.648-11.76L-81.648-11.76Q-81.648-10.56 -81.144-9.624Q-80.64-8.688 -79.752-8.184Q-78.864-7.68 -77.712-7.68ZM-48.44 0.576L-48.44 0.576Q-52.328 0.576 -55.376-1.032Q-58.424-2.64 -60.176-5.472Q-61.928-8.304 -61.928-11.856L-61.928-11.856Q-61.928-15.408 -60.2-18.192Q-58.472-20.976 -55.424-22.584Q-52.376-24.192 -48.488-24.192L-48.488-24.192Q-44.6-24.192 -41.576-22.584Q-38.552-20.976 -36.8-18.192Q-35.048-15.408 -35.048-11.856L-35.048-11.856Q-35.048-8.304 -36.776-5.472Q-38.504-2.64 -41.528-1.032Q-44.552 0.576 -48.44 0.576ZM-48.488-7.68L-48.488-7.68Q-47.288-7.68 -46.4-8.184Q-45.512-8.688 -45.032-9.624Q-44.552-10.56 -44.552-11.808L-44.552-11.808Q-44.552-13.056 -45.056-13.992Q-45.56-14.928 -46.424-15.432Q-47.288-15.936 -48.488-15.936L-48.488-15.936Q-49.64-15.936 -50.528-15.408Q-51.416-14.88 -51.92-13.944Q-52.424-13.008 -52.424-11.76L-52.424-11.76Q-52.424-10.56 -51.92-9.624Q-51.416-8.688 -50.528-8.184Q-49.64-7.68 -48.488-7.68ZM-5.344 0L-15.904 0L-22.48-12.432L-15.952-23.616L-5.824-23.616L-14.272-10.992L-14.032-14.064L-5.344 0ZM-21.712 0L-31.12 0L-31.12-35.136L-21.712-35.136L-21.712 0ZM 9.336 0.576L 9.336 0.576Q 4.968 0.576  1.728-0.696Q-1.512-1.968 -4.248-4.752L-4.248-4.752L 1.752-10.752Q 3.624-8.976  5.688-8.04Q 7.752-7.104  10.104-7.104L 10.104-7.104Q 12.072-7.104  13.08-7.704Q 14.088-8.304  14.088-9.36L 14.088-9.36Q 14.088-10.416  13.224-11.112Q 12.36-11.808  10.944-12.36Q 9.528-12.912  7.824-13.488Q 6.12-14.064  4.44-14.88Q 2.76-15.696  1.344-16.872Q-0.072-18.048 -0.936-19.8Q-1.8-21.552 -1.8-24.096L-1.8-24.096Q-1.8-27.408 -0.216-29.808Q 1.368-32.208  4.248-33.48Q 7.128-34.752  11.016-34.752L 11.016-34.752Q 14.856-34.752  18.144-33.528Q 21.432-32.304  23.592-30.048L 23.592-30.048L 17.544-24.048Q 15.96-25.584  14.376-26.328Q 12.792-27.072  10.92-27.072L 10.92-27.072Q 9.432-27.072  8.544-26.592Q 7.656-26.112  7.656-25.152L 7.656-25.152Q 7.656-24.144  8.52-23.496Q 9.384-22.848  10.8-22.32Q 12.216-21.792  13.92-21.216Q 15.624-20.64  17.304-19.848Q 18.984-19.056  20.4-17.832Q 21.816-16.608  22.68-14.784Q 23.544-12.96  23.544-10.368L 23.544-10.368Q 23.544-5.136  19.824-2.28Q 16.104 0.576  9.336 0.576ZM 40.48 0L 31.072 0L 31.072-33.312L 40.48-33.312L 40.48 0ZM 45.52-15.936L 26.032-15.936L 26.032-23.616L 45.52-23.616L 45.52-15.936ZM 60.728 0.576L 60.728 0.576Q 56.84 0.576  53.792-1.032Q 50.744-2.64  48.992-5.472Q 47.24-8.304  47.24-11.856L 47.24-11.856Q 47.24-15.408  48.968-18.192Q 50.696-20.976  53.744-22.584Q 56.792-24.192  60.68-24.192L 60.68-24.192Q 64.568-24.192  67.592-22.584Q 70.616-20.976  72.368-18.192Q 74.12-15.408  74.12-11.856L 74.12-11.856Q 74.12-8.304  72.392-5.472Q 70.664-2.64  67.64-1.032Q 64.616 0.576  60.728 0.576ZM 60.68-7.68L 60.68-7.68Q 61.88-7.68  62.768-8.184Q 63.656-8.688  64.136-9.624Q 64.616-10.56  64.616-11.808L 64.616-11.808Q 64.616-13.056  64.112-13.992Q 63.608-14.928  62.744-15.432Q 61.88-15.936  60.68-15.936L 60.68-15.936Q 59.528-15.936  58.64-15.408Q 57.752-14.88  57.248-13.944Q 56.744-13.008  56.744-11.76L 56.744-11.76Q 56.744-10.56  57.248-9.624Q 57.752-8.688  58.64-8.184Q 59.528-7.68  60.68-7.68ZM 87.456 0L 78.048 0L 78.048-23.616L 87.456-23.616L 87.456 0ZM 87.456-12.768L 87.456-12.768L 83.088-16.656Q 84.912-20.496  87.336-22.296Q 89.76-24.096  93.408-24.096L 93.408-24.096Q 95.04-24.096  96.216-23.712Q 97.392-23.328  98.112-22.608L 98.112-22.608L 92.832-15.12Q 92.496-15.504  91.848-15.768Q 91.2-16.032  90.336-16.032L 90.336-16.032Q 88.896-16.032  88.176-15.192Q 87.456-14.352  87.456-12.768ZM 112.072 0.576L 112.072 0.576Q 107.944 0.576  104.824-0.984Q 101.704-2.544  99.952-5.352Q 98.2-8.16  98.2-11.808L 98.2-11.808Q 98.2-15.408  99.904-18.192Q 101.608-20.976  104.584-22.584Q 107.56-24.192  111.304-24.192L 111.304-24.192Q 115-24.192  117.832-22.68Q 120.664-21.168  122.272-18.48Q 123.88-15.792  123.88-12.336L 123.88-12.336Q 123.88-11.616  123.808-10.824Q 123.736-10.032  123.496-8.976L 123.496-8.976L 102.184-8.832L 102.184-14.592L 119.992-14.736L 115.624-12.192Q 115.624-14.112  115.168-15.336Q 114.712-16.56  113.8-17.184Q 112.888-17.808  111.496-17.808L 111.496-17.808Q 110.056-17.808  109-17.088Q 107.944-16.368  107.392-15.024Q 106.84-13.68  106.84-11.76L 106.84-11.76Q 106.84-9.792  107.44-8.472Q 108.04-7.152  109.192-6.48Q 110.344-5.808  112.072-5.808L 112.072-5.808Q 113.752-5.808  115.024-6.36Q 116.296-6.912  117.352-8.112L 117.352-8.112L 122.056-3.456Q 120.28-1.44  117.784-0.432Q 115.288 0.576  112.072 0.576Z"></path></svg>